<mxfile host="app.diagrams.net" modified="2021-05-26T15:55:37.748Z" agent="5.0 (Macintosh; Intel Mac OS X 10_15_7) AppleWebKit/537.36 (KHTML, like Gecko) Chrome/91.0.4472.77 Safari/537.36" etag="NdffgR-WRkGWUfLevNww" version="14.7.0" type="github">
  <diagram id="C5RBs43oDa-KdzZeNtuy" name="Page-1">
    <mxGraphModel dx="1901" dy="1025" grid="1" gridSize="10" guides="1" tooltips="1" connect="1" arrows="1" fold="1" page="1" pageScale="1" pageWidth="827" pageHeight="1169" math="0" shadow="0">
      <root>
        <mxCell id="WIyWlLk6GJQsqaUBKTNV-0" />
        <mxCell id="WIyWlLk6GJQsqaUBKTNV-1" parent="WIyWlLk6GJQsqaUBKTNV-0" />
        <mxCell id="B8LkhC3GEkXLVQzpF-pn-12" style="edgeStyle=orthogonalEdgeStyle;rounded=0;orthogonalLoop=1;jettySize=auto;html=1;exitX=0.5;exitY=1;exitDx=0;exitDy=0;" edge="1" parent="WIyWlLk6GJQsqaUBKTNV-1" source="B8LkhC3GEkXLVQzpF-pn-1">
          <mxGeometry relative="1" as="geometry">
            <mxPoint x="390" y="240" as="targetPoint" />
          </mxGeometry>
        </mxCell>
        <object label="Test - Replay" id="B8LkhC3GEkXLVQzpF-pn-1">
          <mxCell style="rounded=0;whiteSpace=wrap;html=1;" vertex="1" parent="WIyWlLk6GJQsqaUBKTNV-1">
            <mxGeometry x="330" y="100" width="120" height="60" as="geometry" />
          </mxCell>
        </object>
        <mxCell id="B8LkhC3GEkXLVQzpF-pn-47" style="edgeStyle=orthogonalEdgeStyle;rounded=0;orthogonalLoop=1;jettySize=auto;html=1;exitX=1;exitY=0.5;exitDx=0;exitDy=0;entryX=0;entryY=0.5;entryDx=0;entryDy=0;" edge="1" parent="WIyWlLk6GJQsqaUBKTNV-1" source="B8LkhC3GEkXLVQzpF-pn-4" target="B8LkhC3GEkXLVQzpF-pn-45">
          <mxGeometry relative="1" as="geometry" />
        </mxCell>
        <mxCell id="B8LkhC3GEkXLVQzpF-pn-54" style="edgeStyle=orthogonalEdgeStyle;rounded=0;orthogonalLoop=1;jettySize=auto;html=1;exitX=0.5;exitY=1;exitDx=0;exitDy=0;entryX=0.5;entryY=0;entryDx=0;entryDy=0;" edge="1" parent="WIyWlLk6GJQsqaUBKTNV-1" source="B8LkhC3GEkXLVQzpF-pn-4" target="B8LkhC3GEkXLVQzpF-pn-48">
          <mxGeometry relative="1" as="geometry" />
        </mxCell>
        <mxCell id="B8LkhC3GEkXLVQzpF-pn-4" value="TSM - Memory Manager&amp;nbsp;&lt;br&gt;if(mem_trans.block_config_walks == 1) block_config_walks =1;&lt;br&gt;" style="rounded=0;whiteSpace=wrap;html=1;" vertex="1" parent="WIyWlLk6GJQsqaUBKTNV-1">
          <mxGeometry x="272" y="540" width="240" height="70" as="geometry" />
        </mxCell>
        <mxCell id="B8LkhC3GEkXLVQzpF-pn-31" style="edgeStyle=orthogonalEdgeStyle;rounded=0;orthogonalLoop=1;jettySize=auto;html=1;entryX=0.25;entryY=0;entryDx=0;entryDy=0;" edge="1" parent="WIyWlLk6GJQsqaUBKTNV-1" source="B8LkhC3GEkXLVQzpF-pn-5" target="B8LkhC3GEkXLVQzpF-pn-4">
          <mxGeometry relative="1" as="geometry" />
        </mxCell>
        <mxCell id="B8LkhC3GEkXLVQzpF-pn-5" value="TSM -O2M&amp;nbsp;&lt;br&gt;stream_config.use_mem_modification == 1 &amp;amp;&amp;amp;&amp;nbsp;&lt;br&gt;inv_config.inv_walk_kind inside {KIND_ST1, KIND_ST2)&amp;nbsp;&lt;br&gt;&amp;amp;&amp;amp;&amp;nbsp;&lt;br&gt;mem_trans.walk_kind == KIND_CD&amp;nbsp;" style="rounded=0;whiteSpace=wrap;html=1;" vertex="1" parent="WIyWlLk6GJQsqaUBKTNV-1">
          <mxGeometry x="50" y="340" width="240" height="100" as="geometry" />
        </mxCell>
        <mxCell id="B8LkhC3GEkXLVQzpF-pn-8" value="Block trigger" style="text;html=1;strokeColor=none;fillColor=none;align=center;verticalAlign=middle;whiteSpace=wrap;rounded=0;" vertex="1" parent="WIyWlLk6GJQsqaUBKTNV-1">
          <mxGeometry x="400" y="180" width="40" height="20" as="geometry" />
        </mxCell>
        <mxCell id="B8LkhC3GEkXLVQzpF-pn-15" style="edgeStyle=orthogonalEdgeStyle;rounded=0;orthogonalLoop=1;jettySize=auto;html=1;exitX=0;exitY=0.5;exitDx=0;exitDy=0;entryX=0.546;entryY=-0.02;entryDx=0;entryDy=0;entryPerimeter=0;" edge="1" parent="WIyWlLk6GJQsqaUBKTNV-1" source="B8LkhC3GEkXLVQzpF-pn-13" target="B8LkhC3GEkXLVQzpF-pn-5">
          <mxGeometry relative="1" as="geometry">
            <mxPoint x="180" y="280" as="targetPoint" />
          </mxGeometry>
        </mxCell>
        <mxCell id="B8LkhC3GEkXLVQzpF-pn-23" style="edgeStyle=orthogonalEdgeStyle;rounded=0;orthogonalLoop=1;jettySize=auto;html=1;exitX=1;exitY=0.5;exitDx=0;exitDy=0;entryX=0;entryY=0.5;entryDx=0;entryDy=0;" edge="1" parent="WIyWlLk6GJQsqaUBKTNV-1" source="B8LkhC3GEkXLVQzpF-pn-13" target="B8LkhC3GEkXLVQzpF-pn-17">
          <mxGeometry relative="1" as="geometry" />
        </mxCell>
        <mxCell id="B8LkhC3GEkXLVQzpF-pn-13" value="Check Condition to block CD&amp;nbsp;" style="rhombus;whiteSpace=wrap;html=1;" vertex="1" parent="WIyWlLk6GJQsqaUBKTNV-1">
          <mxGeometry x="330" y="240" width="120" height="80" as="geometry" />
        </mxCell>
        <mxCell id="B8LkhC3GEkXLVQzpF-pn-16" value="Yes" style="text;html=1;strokeColor=none;fillColor=none;align=center;verticalAlign=middle;whiteSpace=wrap;rounded=0;" vertex="1" parent="WIyWlLk6GJQsqaUBKTNV-1">
          <mxGeometry x="230" y="260" width="40" height="20" as="geometry" />
        </mxCell>
        <mxCell id="B8LkhC3GEkXLVQzpF-pn-24" style="edgeStyle=orthogonalEdgeStyle;rounded=0;orthogonalLoop=1;jettySize=auto;html=1;exitX=0.5;exitY=1;exitDx=0;exitDy=0;entryX=0.5;entryY=0;entryDx=0;entryDy=0;" edge="1" parent="WIyWlLk6GJQsqaUBKTNV-1" source="B8LkhC3GEkXLVQzpF-pn-17" target="B8LkhC3GEkXLVQzpF-pn-19">
          <mxGeometry relative="1" as="geometry" />
        </mxCell>
        <mxCell id="B8LkhC3GEkXLVQzpF-pn-17" value="Check Condition to block STE&amp;nbsp;" style="rhombus;whiteSpace=wrap;html=1;" vertex="1" parent="WIyWlLk6GJQsqaUBKTNV-1">
          <mxGeometry x="490" y="240" width="120" height="80" as="geometry" />
        </mxCell>
        <mxCell id="B8LkhC3GEkXLVQzpF-pn-19" value="TSM -O2M&amp;nbsp;&lt;br&gt;stream_config.use_mem_modification == 1 &amp;amp;&amp;amp;&amp;nbsp;&lt;br&gt;inv_config.inv_walk_kind inside {KIND_CD)&amp;nbsp;&lt;br&gt;&amp;amp;&amp;amp;&amp;nbsp;&lt;br&gt;mem_trans.walk_kind == KIND_STE&amp;nbsp;" style="rounded=0;whiteSpace=wrap;html=1;" vertex="1" parent="WIyWlLk6GJQsqaUBKTNV-1">
          <mxGeometry x="430" y="340" width="240" height="100" as="geometry" />
        </mxCell>
        <mxCell id="B8LkhC3GEkXLVQzpF-pn-25" value="No" style="text;html=1;strokeColor=none;fillColor=none;align=center;verticalAlign=middle;whiteSpace=wrap;rounded=0;" vertex="1" parent="WIyWlLk6GJQsqaUBKTNV-1">
          <mxGeometry x="440" y="260" width="40" height="20" as="geometry" />
        </mxCell>
        <mxCell id="B8LkhC3GEkXLVQzpF-pn-26" value="Yes" style="text;html=1;strokeColor=none;fillColor=none;align=center;verticalAlign=middle;whiteSpace=wrap;rounded=0;" vertex="1" parent="WIyWlLk6GJQsqaUBKTNV-1">
          <mxGeometry x="560" y="320" width="40" height="20" as="geometry" />
        </mxCell>
        <mxCell id="B8LkhC3GEkXLVQzpF-pn-34" value="" style="endArrow=classic;html=1;exitX=0.5;exitY=1;exitDx=0;exitDy=0;" edge="1" parent="WIyWlLk6GJQsqaUBKTNV-1" source="B8LkhC3GEkXLVQzpF-pn-19">
          <mxGeometry width="50" height="50" relative="1" as="geometry">
            <mxPoint x="540" y="510" as="sourcePoint" />
            <mxPoint x="435" y="540" as="targetPoint" />
            <Array as="points">
              <mxPoint x="550" y="480" />
              <mxPoint x="510" y="480" />
              <mxPoint x="435" y="480" />
            </Array>
          </mxGeometry>
        </mxCell>
        <mxCell id="B8LkhC3GEkXLVQzpF-pn-45" value="tw_reactive_seqeunce&lt;br&gt;&lt;div&gt;&amp;nbsp; &amp;nbsp; &amp;nbsp; &amp;nbsp; &amp;nbsp; &amp;nbsp; &amp;nbsp; &amp;nbsp; wait_for_config_walk_unblock(transaction_);&lt;/div&gt;&amp;nbsp;" style="rounded=0;whiteSpace=wrap;html=1;" vertex="1" parent="WIyWlLk6GJQsqaUBKTNV-1">
          <mxGeometry x="550" y="540" width="240" height="70" as="geometry" />
        </mxCell>
        <mxCell id="B8LkhC3GEkXLVQzpF-pn-58" style="edgeStyle=orthogonalEdgeStyle;rounded=0;orthogonalLoop=1;jettySize=auto;html=1;exitX=0.5;exitY=1;exitDx=0;exitDy=0;" edge="1" parent="WIyWlLk6GJQsqaUBKTNV-1" source="B8LkhC3GEkXLVQzpF-pn-48">
          <mxGeometry relative="1" as="geometry">
            <mxPoint x="390" y="810" as="targetPoint" />
          </mxGeometry>
        </mxCell>
        <mxCell id="B8LkhC3GEkXLVQzpF-pn-48" value="TEST -&amp;nbsp;&lt;br&gt;&lt;div style=&quot;text-align: left&quot;&gt;&lt;span&gt;fork&amp;nbsp;&lt;/span&gt;&lt;/div&gt;&lt;div style=&quot;text-align: left&quot;&gt;&lt;span&gt;1) update the mem_modification&amp;nbsp;&lt;/span&gt;&lt;/div&gt;&lt;div style=&quot;text-align: left&quot;&gt;&lt;span&gt;2) start_invalidation&amp;nbsp;&lt;/span&gt;&lt;/div&gt;&lt;div style=&quot;text-align: left&quot;&gt;&lt;span&gt;Join&lt;/span&gt;&lt;/div&gt;" style="rounded=0;whiteSpace=wrap;html=1;" vertex="1" parent="WIyWlLk6GJQsqaUBKTNV-1">
          <mxGeometry x="270" y="670" width="240" height="70" as="geometry" />
        </mxCell>
        <mxCell id="B8LkhC3GEkXLVQzpF-pn-55" value="Trigger from TSM" style="text;html=1;strokeColor=none;fillColor=none;align=center;verticalAlign=middle;whiteSpace=wrap;rounded=0;" vertex="1" parent="WIyWlLk6GJQsqaUBKTNV-1">
          <mxGeometry x="400" y="630" width="40" height="20" as="geometry" />
        </mxCell>
        <mxCell id="B8LkhC3GEkXLVQzpF-pn-56" value="block&amp;nbsp;" style="text;html=1;strokeColor=none;fillColor=none;align=center;verticalAlign=middle;whiteSpace=wrap;rounded=0;" vertex="1" parent="WIyWlLk6GJQsqaUBKTNV-1">
          <mxGeometry x="510" y="550" width="40" height="20" as="geometry" />
        </mxCell>
        <mxCell id="B8LkhC3GEkXLVQzpF-pn-62" style="edgeStyle=orthogonalEdgeStyle;rounded=0;orthogonalLoop=1;jettySize=auto;html=1;exitX=1;exitY=0.5;exitDx=0;exitDy=0;entryX=0.542;entryY=1;entryDx=0;entryDy=0;entryPerimeter=0;" edge="1" parent="WIyWlLk6GJQsqaUBKTNV-1" source="B8LkhC3GEkXLVQzpF-pn-60" target="B8LkhC3GEkXLVQzpF-pn-45">
          <mxGeometry relative="1" as="geometry">
            <mxPoint x="680" y="840" as="targetPoint" />
          </mxGeometry>
        </mxCell>
        <mxCell id="B8LkhC3GEkXLVQzpF-pn-60" value="TRANSLATE BLOCK&amp;nbsp;&lt;br&gt;INV reaches the BSU and translate block gives back trigger to TSM to unblock" style="rounded=0;whiteSpace=wrap;html=1;" vertex="1" parent="WIyWlLk6GJQsqaUBKTNV-1">
          <mxGeometry x="270" y="810" width="240" height="60" as="geometry" />
        </mxCell>
        <mxCell id="B8LkhC3GEkXLVQzpF-pn-64" value="unblock&amp;nbsp;" style="text;html=1;strokeColor=none;fillColor=none;align=center;verticalAlign=middle;whiteSpace=wrap;rounded=0;" vertex="1" parent="WIyWlLk6GJQsqaUBKTNV-1">
          <mxGeometry x="680" y="700" width="40" height="20" as="geometry" />
        </mxCell>
      </root>
    </mxGraphModel>
  </diagram>
</mxfile>
